<svg xmlns="http://www.w3.org/2000/svg" xmlns:xlink="http://www.w3.org/1999/xlink" width="265" zoomAndPan="magnify" viewBox="0 0 198.75 171.750001" height="229" preserveAspectRatio="xMidYMid meet" version="1.0"><defs><clipPath id="840f956086"><path d="M 0.0195312 0 L 198.480469 0 L 198.480469 171.5 L 0.0195312 171.5 Z M 0.0195312 0 " clip-rule="nonzero"/></clipPath><clipPath id="4f2dc364c7"><path d="M 0.0195312 18 L 197.933594 18 L 197.933594 171 L 0.0195312 171 Z M 0.0195312 18 " clip-rule="nonzero"/></clipPath><clipPath id="575d79c375"><path d="M 76.542969 86 L 133.75 86 L 133.75 170.597656 L 76.542969 170.597656 Z M 76.542969 86 " clip-rule="nonzero"/></clipPath></defs><g clip-path="url(#840f956086)"><path fill="#ffffff" d="M 0.0195312 0 L 198.480469 0 L 198.480469 171.5 L 0.0195312 171.5 Z M 0.0195312 0 " fill-opacity="1" fill-rule="nonzero"/></g><path fill="#088e4d" d="M 169.507812 26.375 L 169.507812 38.75 L 99.0625 12.464844 L 28.5625 38.75 L 28.5625 26.375 L 99.0625 0.144531 Z M 169.507812 26.375 " fill-opacity="1" fill-rule="nonzero"/><g clip-path="url(#4f2dc364c7)"><path fill="#088e4d" d="M 148.609375 170.953125 L 148.609375 129.984375 L 133.761719 129.984375 C 158.894531 104.851562 146.519531 80.765625 121.9375 73.671875 C 110.5 70.371094 104.78125 64.871094 101.921875 60.199219 C 99.0625 55.523438 99.0625 51.671875 99.0625 51.671875 C 103.515625 51.671875 107.367188 49.253906 109.457031 45.679688 C 108.136719 46.777344 106.375 47.4375 104.507812 47.4375 C 100.214844 47.4375 96.695312 43.972656 96.695312 39.628906 C 96.695312 35.339844 100.160156 31.875 104.507812 31.875 C 106.375 31.875 108.082031 32.535156 109.457031 33.636719 C 107.421875 30.0625 103.515625 27.640625 99.117188 27.640625 C 92.460938 27.640625 87.128906 33.03125 87.128906 39.628906 C 87.128906 46.285156 92.519531 51.617188 99.117188 51.617188 C 99.117188 51.617188 99.117188 67.015625 76.238281 73.617188 C 51.65625 80.710938 39.285156 104.796875 64.417969 129.929688 L 45.445312 129.929688 L 45.445312 170.898438 L 0.0195312 170.898438 C 0.0195312 132.789062 28.5625 130.039062 28.5625 130.039062 L 28.5625 45.128906 L 99.0625 18.898438 L 169.5625 45.128906 L 169.5625 130.09375 C 169.5625 130.09375 198.105469 132.84375 198.105469 170.953125 Z M 148.609375 170.953125 " fill-opacity="1" fill-rule="nonzero"/></g><g clip-path="url(#575d79c375)"><path fill="#088e4d" d="M 96.242188 89.796875 C 96.242188 89.796875 100.398438 91.035156 101.675781 94.351562 L 105.027344 95.425781 L 104.394531 97.386719 C 104.394531 97.386719 105.59375 98.5 105.28125 99.15625 L 105.914062 99.914062 C 105.914062 99.914062 110.160156 105.183594 104.332031 105.730469 C 104.332031 105.730469 100.636719 110.578125 100.792969 113.066406 C 100.792969 113.066406 106.707031 126.480469 106.292969 131.148438 L 111.667969 126.214844 C 111.667969 126.214844 114.734375 123.125 115.585938 123.371094 C 115.585938 123.371094 119.03125 120.710938 119.316406 121.917969 L 119.128906 123.179688 L 120.769531 122.546875 L 121.464844 122.738281 L 124.25 120.523438 C 124.25 120.523438 125.238281 120.011719 125.195312 120.523438 C 125.15625 121.035156 126.15625 120.730469 125.765625 121.347656 C 125.375 121.964844 126.992188 121.882812 125.640625 123.117188 L 125.386719 123.75 C 125.386719 123.75 126.179688 124.546875 123.867188 126.027344 C 123.867188 126.027344 122.152344 128.269531 121.402344 128.429688 C 121.402344 128.429688 118.972656 131.140625 115.460938 131.144531 C 115.460938 131.144531 117.765625 137.023438 117.484375 138.039062 L 108.191406 142.589844 C 108.191406 142.589844 110.949219 149.726562 111.035156 151.503906 C 111.035156 151.503906 131.777344 159.894531 133.164062 165.160156 C 133.164062 165.160156 133.933594 170.527344 132.339844 171.105469 L 76.578125 170.976562 C 76.578125 170.976562 80.730469 167.414062 85.871094 167.878906 L 85.808594 166.617188 C 85.808594 166.617188 80.167969 157.289062 83.089844 153.273438 C 83.089844 153.273438 78.335938 148.28125 79.484375 144.421875 C 80.636719 140.5625 82.160156 123.75 82.078125 121.472656 C 81.996094 119.195312 81.957031 113.445312 84.226562 112.9375 C 84.226562 112.9375 85.953125 108.410156 87.453125 108.449219 C 87.453125 108.449219 90.433594 106.558594 91.308594 107.183594 C 91.308594 107.183594 90.335938 105.320312 89.285156 104.84375 C 88.238281 104.371094 83.753906 100.679688 83.59375 99.914062 C 83.4375 99.148438 83.003906 94.765625 84.921875 93.71875 C 86.839844 92.667969 87.566406 89.304688 88.90625 89.355469 C 90.246094 89.410156 93.382812 85.554688 94.785156 86.257812 C 96.191406 86.960938 96.519531 88.339844 96.242188 89.796875 Z M 96.242188 89.796875 " fill-opacity="1" fill-rule="evenodd"/></g></svg>